PathFileType	4	(X/Y/Z)
DataRate	CameraRate	NumFrames	NumMarkers	Units	OrigDataRate	OrigDataStartFrame	OrigNumFrames	
  100.0	  100.0	    5	     56	     mm	  100.0	      64	    253
Frame#	Time	LASI			RASI			LPSI			RPSI			RTH1			RTH2			RTH3			RLFC			RMFC			LTH1			LTH2			LTH3			LLFC			LMFC			RTB1			RTB2			RTB3			RLMAL			RMMAL			LTB1			LTB2			LTB3			LMMAL			LLMAL			RCAL			RTOE			RMT5			LCAL			LTOE			LMT5			LACR			RACR			CLAV			C7			LASH			LPSH			RASH			RPSH			RUA1			RUA2			RUA3			RLEL			RMEL			LUA1			LUA2			LUA3			LLEL			LMEL			RFAsuperior			RFAradius			RFAulna			LFAsuperior			LFAradius			LFAulna			RHJC			LHJC			
		X1	Y1	Z1	X2	Y2	Z2	X3	Y3	Z3	X4	Y4	Z4	X5	Y5	Z5	X6	Y6	Z6	X7	Y7	Z7	X8	Y8	Z8	X9	Y9	Z9	X10	Y10	Z10	X11	Y11	Z11	X12	Y12	Z12	X13	Y13	Z13	X14	Y14	Z14	X15	Y15	Z15	X16	Y16	Z16	X17	Y17	Z17	X18	Y18	Z18	X19	Y19	Z19	X20	Y20	Z20	X21	Y21	Z21	X22	Y22	Z22	X23	Y23	Z23	X24	Y24	Z24	X25	Y25	Z25	X26	Y26	Z26	X27	Y27	Z27	X28	Y28	Z28	X29	Y29	Z29	X30	Y30	Z30	X31	Y31	Z31	X32	Y32	Z32	X33	Y33	Z33	X34	Y34	Z34	X35	Y35	Z35	X36	Y36	Z36	X37	Y37	Z37	X38	Y38	Z38	X39	Y39	Z39	X40	Y40	Z40	X41	Y41	Z41	X42	Y42	Z42	X43	Y43	Z43	X44	Y44	Z44	X45	Y45	Z45	X46	Y46	Z46	X47	Y47	Z47	X48	Y48	Z48	X49	Y49	Z49	X50	Y50	Z50	X51	Y51	Z51	X52	Y52	Z52	X53	Y53	Z53	X54	Y54	Z54	X55	Y55	Z55	X56	Y56	Z56	

81	0.81000	507.04232	1049.99151	-632.60912	525.49086	1043.61120	-361.89092	344.18941	1064.80650	-540.74995	345.39218	1063.06186	-440.45007	422.29870	861.50937	-305.09791	503.65173	759.73042	-306.09340	426.69333	639.39768	-320.41792	465.69001	520.07501	-314.22405	455.42871	509.09375	-438.90614	432.88552	863.18858	-683.86004	502.71700	737.10863	-682.14154	449.92410	619.01350	-678.19450	466.07611	526.38266	-676.53665	455.69870	517.09513	-550.71900	483.57945	389.31833	-364.00450	453.91098	341.74646	-293.12653	459.92847	225.63387	-346.55382	406.87597	113.14932	-289.34415	433.34237	119.97840	-381.32418	480.02662	378.16321	-627.07470	423.07515	306.64929	-696.43899	459.43947	224.72528	-635.22690	435.77590	122.04245	-591.00989	416.28130	117.17829	-681.52298	339.28228	100.35096	-340.71416	566.71647	70.98104	-347.09184	515.40433	58.81816	-258.38314	339.13995	96.47489	-625.09147	572.41487	69.50935	-636.59078	510.68385	54.47110	-722.12599	583.58963	1516.47633	-645.17871	603.51116	1498.67467	-348.33026	630.76732	1412.88479	-471.29932	550.62578	1528.27338	-492.08305	616.29907	1444.84746	-659.30678	499.40080	1494.14566	-670.37884	616.58427	1423.06758	-342.93334	504.28574	1495.40420	-318.84125	553.15771	1487.78231	-247.77293	491.44728	1423.55408	-224.53144	524.51194	1428.64155	-150.21167	506.87774	1388.54238	-46.74283	483.26867	1318.28918	-85.23849	525.23655	1488.05270	-741.75402	488.38504	1403.88197	-766.54129	496.09693	1406.33660	-854.11425	506.61908	1374.71086	-939.99754	490.50261	1309.98557	-896.23443	614.71707	1374.51129	-43.29447	761.40093	1338.46053	-68.38542	740.67635	1272.17952	-56.92804	616.39827	1361.71788	-954.49131	767.32978	1323.53984	-942.20568	753.78620	1253.92443	-943.25718	448.54340	955.35432	-400.45001	442.10567	966.48353	-575.13724	
82	0.82000	507.03063	1049.99075	-632.61789	525.55565	1043.60623	-361.88078	343.01886	1065.09756	-540.26015	345.37921	1063.01674	-440.44897	422.31233	861.48701	-305.09983	503.67231	759.71446	-306.09548	426.70405	639.39235	-320.41439	465.67174	520.04328	-314.24532	455.45672	509.10226	-438.92038	431.81318	863.09779	-682.77453	502.40017	737.12439	-682.20907	448.81311	618.76419	-676.94376	465.72626	526.41019	-676.54803	455.69407	517.06926	-550.72621	483.74414	389.37567	-363.96621	453.88687	341.72812	-293.13403	459.90123	225.70129	-346.48027	406.82397	113.12428	-289.34696	434.06578	120.24146	-381.10100	480.29447	378.22371	-626.94434	423.93781	306.82033	-696.89540	460.78514	225.30275	-636.43229	435.76751	121.96907	-591.00883	414.15825	117.72771	-681.45617	339.26346	100.35544	-340.67910	566.00686	71.38443	-346.90679	514.95972	59.35091	-258.21163	339.52360	96.41790	-625.08473	571.47756	69.18405	-636.98417	509.86124	54.32679	-722.41660	583.30156	1516.62321	-645.17484	603.53431	1498.63314	-348.31669	630.44451	1412.99613	-471.42715	550.31114	1528.38753	-492.21807	615.88686	1445.02114	-659.39978	499.04349	1494.32545	-670.19631	616.61953	1423.03352	-342.91241	504.30406	1495.36044	-318.82474	552.93991	1487.81325	-247.80051	491.44929	1423.51522	-224.48403	524.54245	1428.60206	-150.18522	506.65209	1388.56156	-46.74681	483.27319	1318.23885	-85.21563	524.92700	1488.22125	-741.47865	487.35368	1404.08294	-766.06315	495.08144	1406.51986	-853.63167	505.89291	1374.90887	-939.39759	490.52145	1309.99251	-896.23954	614.73644	1374.45209	-43.28265	761.40129	1338.39545	-68.40410	740.72323	1272.09460	-56.93192	616.03096	1361.88191	-954.50145	767.12322	1323.63732	-942.21518	753.64015	1253.94783	-943.29128	448.44822	955.38608	-400.35988	441.79240	966.53315	-575.04318	
83	0.83000	507.02420	1049.98249	-632.63150	525.38869	1043.60625	-361.98456	341.32922	1065.52752	-539.57669	345.39415	1062.92695	-440.43936	422.33671	861.46123	-305.08711	503.71461	759.69074	-306.08842	426.72002	639.38899	-320.39994	465.64569	520.01122	-314.25189	455.46889	509.11384	-438.93182	430.27210	862.97506	-681.18406	501.90297	737.15739	-682.30172	447.19412	618.40113	-675.14243	465.20796	526.43656	-676.58872	455.69259	517.05374	-550.73097	483.58348	389.38898	-363.97873	453.91505	341.68090	-293.11693	459.67433	225.71096	-346.44630	406.79392	113.10437	-289.34671	434.34117	120.40410	-380.96183	480.38007	378.31088	-626.83007	424.12858	306.86819	-696.82232	460.85688	225.28419	-636.09965	435.78131	121.87757	-590.97670	411.57913	118.32564	-681.29599	339.26731	100.38994	-340.59544	564.95783	71.53615	-346.88910	514.25855	60.02273	-257.93735	339.54996	96.46265	-624.96218	570.08042	68.62156	-637.66742	508.53909	54.00450	-723.00362	582.84263	1516.80073	-645.22774	603.57510	1498.58240	-348.28310	629.96916	1413.14130	-471.60935	549.84395	1528.53556	-492.40746	615.32065	1445.24100	-659.53817	498.40852	1494.59264	-669.90324	616.68043	1422.98738	-342.86352	504.32379	1495.31529	-318.78164	552.62380	1487.88270	-247.83276	491.47537	1423.43917	-224.42355	524.59368	1428.55202	-150.14561	506.36683	1388.59696	-46.74663	483.28510	1318.20085	-85.17979	524.42125	1488.47116	-741.06058	485.87813	1404.39121	-765.39369	493.60835	1406.78433	-852.93781	504.82644	1375.19730	-938.53328	490.53618	1310.00281	-896.23974	614.78104	1374.38375	-43.26709	761.43485	1338.32324	-68.40578	740.78183	1272.02111	-56.92801	615.53230	1362.07643	-954.53481	766.75060	1323.77654	-942.26549	753.32629	1254.02231	-943.36247	448.25856	955.41838	-400.27411	441.23416	966.60682	-574.95421	
84	0.84000	507.02778	1049.97566	-632.64769	525.19054	1043.60427	-362.09989	339.53490	1066.00658	-538.87596	345.43168	1062.87291	-440.42642	422.37348	861.45477	-305.07619	503.76746	759.68079	-306.08950	426.73717	639.39662	-320.39094	465.64711	520.01645	-314.24104	455.45398	509.11994	-438.94138	428.65187	862.85459	-679.47866	501.35901	737.20612	-682.38635	445.44736	618.00959	-673.22894	464.70484	526.43875	-676.66967	455.70424	517.05909	-550.73330	483.00682	389.32893	-364.05907	453.95509	341.65629	-293.09938	459.23585	225.62712	-346.50386	406.80075	113.10720	-289.35002	433.82399	120.35226	-380.99607	480.08142	378.36917	-626.80545	423.20485	306.70160	-695.97279	459.48845	224.64920	-634.34517	435.79899	121.84700	-590.94248	409.51113	118.72229	-681.03372	339.28958	100.41358	-340.55003	563.77558	71.07907	-347.37489	513.31334	60.40767	-257.69711	338.67623	96.71596	-624.68242	568.67537	67.97105	-638.48619	507.13737	53.57044	-723.76915	582.39698	1516.93113	-645.30609	603.61887	1498.54895	-348.25077	629.45213	1413.28542	-471.82200	549.33507	1528.68258	-492.62731	614.79037	1445.42579	-659.68260	497.67828	1494.89782	-669.60168	616.72642	1422.95413	-342.82557	504.34762	1495.31052	-318.72520	552.28973	1487.98683	-247.86497	491.52537	1423.38015	-224.37785	524.64802	1428.50897	-150.11138	506.15150	1388.62697	-46.74091	483.34264	1318.17212	-85.16676	523.81966	1488.76215	-740.59770	484.34385	1404.73725	-764.69687	492.05245	1407.09111	-852.21975	503.67237	1375.50951	-937.60563	490.54988	1310.01853	-896.22832	614.84530	1374.32743	-43.25820	761.50681	1338.26447	-68.39494	740.81117	1271.97205	-56.94119	615.07233	1362.22491	-954.59277	766.29365	1323.91771	-942.34570	752.89432	1254.14184	-943.44535	448.03322	955.46489	-400.19159	440.63064	966.70042	-574.86656	
85	0.85000	507.03963	1049.97862	-632.66145	525.19843	1043.59743	-362.10936	338.05767	1066.41504	-538.30778	345.47618	1062.87850	-440.42599	422.41771	861.47076	-305.07727	503.81436	759.68656	-306.10545	426.74962	639.40978	-320.39366	465.68063	520.05172	-314.22086	455.42036	509.11847	-438.94737	427.33519	862.76205	-678.06832	500.93905	737.25631	-682.44030	443.99541	617.68369	-671.66355	464.39144	526.41487	-676.76773	455.71712	517.07791	-550.73783	482.31576	389.23930	-364.15319	453.95229	341.68735	-293.10508	458.77540	225.49817	-346.61705	406.83276	113.12499	-289.35436	432.90069	120.17516	-381.12611	479.58318	378.37340	-626.85795	421.74628	306.42918	-694.81267	457.68282	223.86671	-632.38843	435.81511	121.86454	-590.94245	408.38477	118.85696	-680.72411	339.31365	100.39214	-340.58355	562.76392	70.15539	-348.26519	512.38540	60.47474	-257.57217	337.39820	97.02753	-624.35716	567.72117	67.44893	-639.17005	506.15897	53.18461	-724.43931	582.11011	1516.97820	-645.37266	603.65470	1498.53714	-348.23479	629.02470	1413.40129	-472.01522	548.91577	1528.80129	-492.82773	614.43667	1445.53284	-659.79312	497.06979	1495.16732	-669.36350	616.74717	1422.94453	-342.81978	504.37984	1495.33966	-318.68534	552.03178	1488.08675	-247.88991	491.58900	1423.35472	-224.36212	524.69791	1428.47790	-150.09069	506.07023	1388.62656	-46.73434	483.43360	1318.13678	-85.17548	523.28208	1489.02680	-740.20057	483.10573	1405.03427	-764.11569	490.77495	1407.36666	-851.63544	502.69551	1375.76897	-936.81609	490.56101	1310.03127	-896.20614	614.92504	1374.28796	-43.25511	761.59143	1338.21970	-68.38889	740.82475	1271.93285	-56.97299	614.77300	1362.29729	-954.65585	765.89761	1324.02925	-942.42229	752.49053	1254.26727	-943.50698	447.86742	955.52402	-400.09919	440.21268	966.78945	-574.76771	
